<svg width="16" height="17" viewBox="0 0 16 17" fill="none" xmlns="http://www.w3.org/2000/svg">
<path fill-rule="evenodd" clip-rule="evenodd" d="M8.40024 0.65726C8.3791 0.654874 8.35798 0.652204 8.33685 0.649532C8.27176 0.641302 8.20655 0.633057 8.14039 0.633057C8.12667 0.633057 8.11311 0.634896 8.09958 0.636731C8.08787 0.638318 8.07619 0.639903 8.06444 0.64029C8.04325 0.639902 8.02217 0.638314 8.00108 0.636724L8.00108 0.636724C7.97676 0.634891 7.95243 0.633057 7.92785 0.633057C3.63265 0.633057 0.138123 4.12786 0.138123 8.42278C0.138123 12.7183 3.63265 16.2125 7.92785 16.2125C7.95255 16.2125 7.977 16.2107 8.00139 16.209C8.02233 16.2074 8.04322 16.2059 8.06417 16.2055C8.07604 16.2059 8.08779 16.2075 8.09954 16.209L8.09955 16.209C8.11312 16.2107 8.12668 16.2125 8.14039 16.2125C8.21002 16.2125 8.2786 16.2037 8.3471 16.195C8.36481 16.1927 8.38252 16.1904 8.40024 16.1883C12.4754 15.9424 15.7176 12.5588 15.7176 8.42278C15.7176 4.28672 12.4754 0.903471 8.40024 0.65726ZM5.59595 2.02297C4.80696 2.93381 4.16598 4.24165 3.81405 5.78624C2.71959 5.66745 2.05913 5.52918 1.79289 5.46519C2.56633 3.8681 3.92991 2.6339 5.59595 2.02297ZM1.42428 6.37248C1.2198 7.01958 1.10851 7.70841 1.10851 8.42284C1.10967 9.26214 1.26683 10.0939 1.572 10.8758C1.88387 10.8004 2.57882 10.656 3.70694 10.5336C3.58732 9.86339 3.51693 9.15814 3.51693 8.42284C3.51754 7.8612 3.55723 7.30029 3.63572 6.74416C2.32065 6.5981 1.61012 6.42255 1.42428 6.37248ZM1.99598 11.775C2.34874 11.6999 2.98082 11.5861 3.91503 11.4884C4.28254 12.8483 4.8804 13.9975 5.5965 14.8233C4.07294 14.2658 2.79679 13.1856 1.99542 11.775H1.99598ZM4.80277 11.4052C5.3066 13.3565 6.5357 14.804 7.37032 15.1534V11.3031C6.5357 11.3131 5.52721 11.3515 4.80277 11.4052ZM7.37034 10.3333C6.53573 10.3439 5.39982 10.3867 4.6253 10.4468C4.51875 9.80414 4.48842 9.12421 4.48842 8.42286C4.48842 7.87758 4.49899 7.34676 4.56493 6.83403C5.35141 6.89635 6.53573 6.94114 7.37034 6.95227V10.333V10.3333ZM4.69845 5.87258C5.44459 5.92962 6.53571 5.9719 7.37033 5.9822V5.98192V1.69256C6.53571 2.06758 5.16444 3.70398 4.69845 5.87258ZM14.0378 5.41176C13.8856 5.4585 13.2691 5.63043 12.0497 5.77482C11.7746 4.31146 11.278 3.06455 10.6303 2.16428C12.1151 2.80777 13.3225 3.96621 14.0378 5.41148V5.41176ZM11.1503 5.87114C10.6932 3.67555 9.31775 2.02441 8.48314 1.67804V5.98242C9.31775 5.97213 10.4161 5.92956 11.1503 5.87114ZM8.48314 6.95218C9.31775 6.94133 10.4876 6.89543 11.2643 6.83089C11.3283 7.34445 11.3445 7.8761 11.3445 8.42277C11.3445 9.12496 11.3194 9.806 11.2159 10.4495C10.4512 10.3877 9.31775 10.3432 8.48314 10.3332V6.95218ZM8.48314 11.3031V15.1679V15.1682C9.31775 14.8449 10.5535 13.3849 11.0487 11.4074C10.3338 11.3523 9.31775 11.3131 8.48314 11.3031ZM10.6303 14.6819C11.214 13.8706 11.6789 12.7817 11.9657 11.5028C12.925 11.6133 13.5292 11.7418 13.8339 11.8186C13.1003 13.0915 11.9773 14.0952 10.6303 14.6819ZM12.1966 6.73358C12.343 8.00118 12.3234 9.28246 12.1382 10.545L12.1385 10.5447C13.3225 10.6838 13.996 10.8513 14.264 10.9295C14.5728 10.1527 14.748 9.30836 14.748 8.42283C14.7476 7.54753 14.5776 6.68061 14.2473 5.87003L14.4039 6.31237C14.3599 6.32795 13.6961 6.55358 12.1966 6.73358Z" fill="white"/>
</svg>
